<mxfile host="app.diagrams.net" agent="Mozilla/5.0 (Windows NT 10.0; Win64; x64; rv:132.0) Gecko/20100101 Firefox/132.0" version="24.8.3">
  <diagram name="Page-1" id="ezrzcMbxNbt7FEVQFdce">
    <mxGraphModel dx="1247" dy="630" grid="1" gridSize="10" guides="1" tooltips="1" connect="1" arrows="1" fold="1" page="1" pageScale="1" pageWidth="1400" pageHeight="850" math="0" shadow="0">
      <root>
        <mxCell id="0" />
        <mxCell id="1" parent="0" />
        <mxCell id="zFvjHUXD-oqokfdrNkOI-3" value="" style="edgeStyle=orthogonalEdgeStyle;rounded=0;orthogonalLoop=1;jettySize=auto;html=1;curved=0;" edge="1" parent="1" source="zFvjHUXD-oqokfdrNkOI-1" target="zFvjHUXD-oqokfdrNkOI-2">
          <mxGeometry relative="1" as="geometry" />
        </mxCell>
        <mxCell id="zFvjHUXD-oqokfdrNkOI-1" value="" style="html=1;points=[[0,0,0,0,5],[0,1,0,0,-5],[1,0,0,0,5],[1,1,0,0,-5]];perimeter=orthogonalPerimeter;outlineConnect=0;targetShapes=umlLifeline;portConstraint=eastwest;newEdgeStyle={&quot;curved&quot;:0,&quot;rounded&quot;:0};fillColor=#000000;" vertex="1" parent="1">
          <mxGeometry x="530" y="190" width="10" height="80" as="geometry" />
        </mxCell>
        <mxCell id="zFvjHUXD-oqokfdrNkOI-5" value="" style="edgeStyle=orthogonalEdgeStyle;rounded=0;orthogonalLoop=1;jettySize=auto;html=1;" edge="1" parent="1" source="zFvjHUXD-oqokfdrNkOI-2" target="zFvjHUXD-oqokfdrNkOI-4">
          <mxGeometry relative="1" as="geometry" />
        </mxCell>
        <mxCell id="zFvjHUXD-oqokfdrNkOI-2" value="" style="ellipse;whiteSpace=wrap;html=1;aspect=fixed;" vertex="1" parent="1">
          <mxGeometry x="620" y="190" width="80" height="80" as="geometry" />
        </mxCell>
        <mxCell id="zFvjHUXD-oqokfdrNkOI-9" value="" style="edgeStyle=orthogonalEdgeStyle;rounded=0;orthogonalLoop=1;jettySize=auto;html=1;curved=0;" edge="1" parent="1" source="zFvjHUXD-oqokfdrNkOI-4" target="zFvjHUXD-oqokfdrNkOI-7">
          <mxGeometry relative="1" as="geometry" />
        </mxCell>
        <mxCell id="zFvjHUXD-oqokfdrNkOI-4" value="" style="html=1;points=[[0,0,0,0,5],[0,1,0,0,-5],[1,0,0,0,5],[1,1,0,0,-5]];perimeter=orthogonalPerimeter;outlineConnect=0;targetShapes=umlLifeline;portConstraint=eastwest;newEdgeStyle={&quot;curved&quot;:0,&quot;rounded&quot;:0};fillColor=#000000;" vertex="1" parent="1">
          <mxGeometry x="770" y="190" width="10" height="80" as="geometry" />
        </mxCell>
        <mxCell id="zFvjHUXD-oqokfdrNkOI-6" value="" style="edgeStyle=orthogonalEdgeStyle;rounded=0;orthogonalLoop=1;jettySize=auto;html=1;" edge="1" source="zFvjHUXD-oqokfdrNkOI-7" target="zFvjHUXD-oqokfdrNkOI-8" parent="1">
          <mxGeometry relative="1" as="geometry" />
        </mxCell>
        <mxCell id="zFvjHUXD-oqokfdrNkOI-7" value="" style="ellipse;whiteSpace=wrap;html=1;aspect=fixed;" vertex="1" parent="1">
          <mxGeometry x="860" y="190" width="80" height="80" as="geometry" />
        </mxCell>
        <mxCell id="zFvjHUXD-oqokfdrNkOI-17" style="edgeStyle=orthogonalEdgeStyle;rounded=0;orthogonalLoop=1;jettySize=auto;html=1;curved=0;" edge="1" parent="1" source="zFvjHUXD-oqokfdrNkOI-8" target="zFvjHUXD-oqokfdrNkOI-10">
          <mxGeometry relative="1" as="geometry">
            <Array as="points">
              <mxPoint x="1040" y="260" />
              <mxPoint x="1040" y="370" />
            </Array>
          </mxGeometry>
        </mxCell>
        <mxCell id="zFvjHUXD-oqokfdrNkOI-21" value="" style="edgeStyle=orthogonalEdgeStyle;rounded=0;orthogonalLoop=1;jettySize=auto;html=1;curved=0;" edge="1" parent="1" source="zFvjHUXD-oqokfdrNkOI-8" target="zFvjHUXD-oqokfdrNkOI-18">
          <mxGeometry relative="1" as="geometry" />
        </mxCell>
        <mxCell id="zFvjHUXD-oqokfdrNkOI-8" value="" style="html=1;points=[[0,0,0,0,5],[0,1,0,0,-5],[1,0,0,0,5],[1,1,0,0,-5]];perimeter=orthogonalPerimeter;outlineConnect=0;targetShapes=umlLifeline;portConstraint=eastwest;newEdgeStyle={&quot;curved&quot;:0,&quot;rounded&quot;:0};fillColor=#000000;" vertex="1" parent="1">
          <mxGeometry x="1010" y="190" width="10" height="80" as="geometry" />
        </mxCell>
        <mxCell id="zFvjHUXD-oqokfdrNkOI-10" value="" style="ellipse;whiteSpace=wrap;html=1;aspect=fixed;" vertex="1" parent="1">
          <mxGeometry x="860" y="345" width="80" height="80" as="geometry" />
        </mxCell>
        <mxCell id="zFvjHUXD-oqokfdrNkOI-11" value="" style="ellipse;whiteSpace=wrap;html=1;aspect=fixed;fillColor=#000000;" vertex="1" parent="1">
          <mxGeometry x="870" y="365" width="20" height="20" as="geometry" />
        </mxCell>
        <mxCell id="zFvjHUXD-oqokfdrNkOI-12" value="" style="ellipse;whiteSpace=wrap;html=1;aspect=fixed;fillColor=#000000;" vertex="1" parent="1">
          <mxGeometry x="910" y="365" width="20" height="20" as="geometry" />
        </mxCell>
        <mxCell id="zFvjHUXD-oqokfdrNkOI-15" value="" style="ellipse;whiteSpace=wrap;html=1;aspect=fixed;fillColor=#000000;" vertex="1" parent="1">
          <mxGeometry x="890" y="390" width="20" height="20" as="geometry" />
        </mxCell>
        <mxCell id="zFvjHUXD-oqokfdrNkOI-16" style="edgeStyle=orthogonalEdgeStyle;rounded=0;orthogonalLoop=1;jettySize=auto;html=1;entryX=0;entryY=1;entryDx=0;entryDy=-5;entryPerimeter=0;" edge="1" parent="1" source="zFvjHUXD-oqokfdrNkOI-10" target="zFvjHUXD-oqokfdrNkOI-4">
          <mxGeometry relative="1" as="geometry">
            <Array as="points">
              <mxPoint x="750" y="370" />
              <mxPoint x="750" y="265" />
            </Array>
          </mxGeometry>
        </mxCell>
        <mxCell id="zFvjHUXD-oqokfdrNkOI-18" value="" style="ellipse;whiteSpace=wrap;html=1;aspect=fixed;" vertex="1" parent="1">
          <mxGeometry x="1100" y="190" width="80" height="80" as="geometry" />
        </mxCell>
        <mxCell id="zFvjHUXD-oqokfdrNkOI-19" value="" style="edgeStyle=orthogonalEdgeStyle;rounded=0;orthogonalLoop=1;jettySize=auto;html=1;" edge="1" source="zFvjHUXD-oqokfdrNkOI-18" target="zFvjHUXD-oqokfdrNkOI-20" parent="1">
          <mxGeometry relative="1" as="geometry" />
        </mxCell>
        <mxCell id="zFvjHUXD-oqokfdrNkOI-25" value="" style="edgeStyle=orthogonalEdgeStyle;rounded=0;orthogonalLoop=1;jettySize=auto;html=1;curved=0;" edge="1" parent="1" source="zFvjHUXD-oqokfdrNkOI-20" target="zFvjHUXD-oqokfdrNkOI-22">
          <mxGeometry relative="1" as="geometry" />
        </mxCell>
        <mxCell id="zFvjHUXD-oqokfdrNkOI-20" value="" style="html=1;points=[[0,0,0,0,5],[0,1,0,0,-5],[1,0,0,0,5],[1,1,0,0,-5]];perimeter=orthogonalPerimeter;outlineConnect=0;targetShapes=umlLifeline;portConstraint=eastwest;newEdgeStyle={&quot;curved&quot;:0,&quot;rounded&quot;:0};fillColor=#000000;" vertex="1" parent="1">
          <mxGeometry x="1250" y="190" width="10" height="80" as="geometry" />
        </mxCell>
        <mxCell id="zFvjHUXD-oqokfdrNkOI-22" value="" style="ellipse;whiteSpace=wrap;html=1;aspect=fixed;" vertex="1" parent="1">
          <mxGeometry x="1330" y="190" width="80" height="80" as="geometry" />
        </mxCell>
        <mxCell id="zFvjHUXD-oqokfdrNkOI-23" value="" style="edgeStyle=orthogonalEdgeStyle;rounded=0;orthogonalLoop=1;jettySize=auto;html=1;" edge="1" parent="1" source="zFvjHUXD-oqokfdrNkOI-22" target="zFvjHUXD-oqokfdrNkOI-24">
          <mxGeometry relative="1" as="geometry" />
        </mxCell>
        <mxCell id="zFvjHUXD-oqokfdrNkOI-28" style="edgeStyle=orthogonalEdgeStyle;rounded=0;orthogonalLoop=1;jettySize=auto;html=1;curved=0;entryX=1;entryY=0.5;entryDx=0;entryDy=0;" edge="1" parent="1" source="zFvjHUXD-oqokfdrNkOI-24" target="zFvjHUXD-oqokfdrNkOI-26">
          <mxGeometry relative="1" as="geometry">
            <Array as="points">
              <mxPoint x="1520" y="200" />
              <mxPoint x="1520" y="100" />
            </Array>
          </mxGeometry>
        </mxCell>
        <mxCell id="zFvjHUXD-oqokfdrNkOI-36" value="" style="edgeStyle=orthogonalEdgeStyle;rounded=0;orthogonalLoop=1;jettySize=auto;html=1;curved=0;" edge="1" parent="1" source="zFvjHUXD-oqokfdrNkOI-24" target="zFvjHUXD-oqokfdrNkOI-33">
          <mxGeometry relative="1" as="geometry" />
        </mxCell>
        <mxCell id="zFvjHUXD-oqokfdrNkOI-47" value="X3" style="edgeLabel;html=1;align=center;verticalAlign=middle;resizable=0;points=[];" vertex="1" connectable="0" parent="zFvjHUXD-oqokfdrNkOI-36">
          <mxGeometry x="0.175" relative="1" as="geometry">
            <mxPoint as="offset" />
          </mxGeometry>
        </mxCell>
        <mxCell id="zFvjHUXD-oqokfdrNkOI-24" value="" style="html=1;points=[[0,0,0,0,5],[0,1,0,0,-5],[1,0,0,0,5],[1,1,0,0,-5]];perimeter=orthogonalPerimeter;outlineConnect=0;targetShapes=umlLifeline;portConstraint=eastwest;newEdgeStyle={&quot;curved&quot;:0,&quot;rounded&quot;:0};fillColor=#000000;" vertex="1" parent="1">
          <mxGeometry x="1480" y="190" width="10" height="80" as="geometry" />
        </mxCell>
        <mxCell id="zFvjHUXD-oqokfdrNkOI-26" value="" style="ellipse;whiteSpace=wrap;html=1;aspect=fixed;" vertex="1" parent="1">
          <mxGeometry x="1330" y="60" width="80" height="80" as="geometry" />
        </mxCell>
        <mxCell id="zFvjHUXD-oqokfdrNkOI-27" value="" style="ellipse;whiteSpace=wrap;html=1;aspect=fixed;fillColor=#000000;" vertex="1" parent="1">
          <mxGeometry x="1360" y="90" width="20" height="20" as="geometry" />
        </mxCell>
        <mxCell id="zFvjHUXD-oqokfdrNkOI-29" style="edgeStyle=orthogonalEdgeStyle;rounded=0;orthogonalLoop=1;jettySize=auto;html=1;entryX=0;entryY=0;entryDx=0;entryDy=5;entryPerimeter=0;" edge="1" parent="1" source="zFvjHUXD-oqokfdrNkOI-26" target="zFvjHUXD-oqokfdrNkOI-20">
          <mxGeometry relative="1" as="geometry">
            <Array as="points">
              <mxPoint x="1230" y="100" />
              <mxPoint x="1230" y="195" />
            </Array>
          </mxGeometry>
        </mxCell>
        <mxCell id="zFvjHUXD-oqokfdrNkOI-33" value="" style="ellipse;whiteSpace=wrap;html=1;aspect=fixed;" vertex="1" parent="1">
          <mxGeometry x="1570" y="190" width="80" height="80" as="geometry" />
        </mxCell>
        <mxCell id="zFvjHUXD-oqokfdrNkOI-34" value="" style="edgeStyle=orthogonalEdgeStyle;rounded=0;orthogonalLoop=1;jettySize=auto;html=1;" edge="1" source="zFvjHUXD-oqokfdrNkOI-33" target="zFvjHUXD-oqokfdrNkOI-35" parent="1">
          <mxGeometry relative="1" as="geometry" />
        </mxCell>
        <mxCell id="zFvjHUXD-oqokfdrNkOI-40" value="" style="edgeStyle=orthogonalEdgeStyle;rounded=0;orthogonalLoop=1;jettySize=auto;html=1;curved=0;" edge="1" parent="1" source="zFvjHUXD-oqokfdrNkOI-35" target="zFvjHUXD-oqokfdrNkOI-37">
          <mxGeometry relative="1" as="geometry" />
        </mxCell>
        <mxCell id="zFvjHUXD-oqokfdrNkOI-35" value="" style="html=1;points=[[0,0,0,0,5],[0,1,0,0,-5],[1,0,0,0,5],[1,1,0,0,-5]];perimeter=orthogonalPerimeter;outlineConnect=0;targetShapes=umlLifeline;portConstraint=eastwest;newEdgeStyle={&quot;curved&quot;:0,&quot;rounded&quot;:0};fillColor=#000000;" vertex="1" parent="1">
          <mxGeometry x="1720" y="190" width="10" height="80" as="geometry" />
        </mxCell>
        <mxCell id="zFvjHUXD-oqokfdrNkOI-37" value="" style="ellipse;whiteSpace=wrap;html=1;aspect=fixed;" vertex="1" parent="1">
          <mxGeometry x="1800" y="190" width="80" height="80" as="geometry" />
        </mxCell>
        <mxCell id="zFvjHUXD-oqokfdrNkOI-38" value="" style="edgeStyle=orthogonalEdgeStyle;rounded=0;orthogonalLoop=1;jettySize=auto;html=1;" edge="1" source="zFvjHUXD-oqokfdrNkOI-37" target="zFvjHUXD-oqokfdrNkOI-39" parent="1">
          <mxGeometry relative="1" as="geometry" />
        </mxCell>
        <mxCell id="zFvjHUXD-oqokfdrNkOI-39" value="" style="html=1;points=[[0,0,0,0,5],[0,1,0,0,-5],[1,0,0,0,5],[1,1,0,0,-5]];perimeter=orthogonalPerimeter;outlineConnect=0;targetShapes=umlLifeline;portConstraint=eastwest;newEdgeStyle={&quot;curved&quot;:0,&quot;rounded&quot;:0};fillColor=#000000;" vertex="1" parent="1">
          <mxGeometry x="1950" y="190" width="10" height="80" as="geometry" />
        </mxCell>
        <mxCell id="zFvjHUXD-oqokfdrNkOI-41" style="edgeStyle=orthogonalEdgeStyle;rounded=0;orthogonalLoop=1;jettySize=auto;html=1;curved=0;entryX=1;entryY=0.5;entryDx=0;entryDy=0;" edge="1" target="zFvjHUXD-oqokfdrNkOI-42" parent="1">
          <mxGeometry relative="1" as="geometry">
            <mxPoint x="1959.94" y="210" as="sourcePoint" />
            <Array as="points">
              <mxPoint x="1989.94" y="210" />
              <mxPoint x="1989.94" y="110" />
            </Array>
          </mxGeometry>
        </mxCell>
        <mxCell id="zFvjHUXD-oqokfdrNkOI-42" value="" style="ellipse;whiteSpace=wrap;html=1;aspect=fixed;" vertex="1" parent="1">
          <mxGeometry x="1799.94" y="70" width="80" height="80" as="geometry" />
        </mxCell>
        <mxCell id="zFvjHUXD-oqokfdrNkOI-44" style="edgeStyle=orthogonalEdgeStyle;rounded=0;orthogonalLoop=1;jettySize=auto;html=1;entryX=0;entryY=0;entryDx=0;entryDy=5;entryPerimeter=0;" edge="1" source="zFvjHUXD-oqokfdrNkOI-42" parent="1">
          <mxGeometry relative="1" as="geometry">
            <mxPoint x="1719.94" y="205" as="targetPoint" />
            <Array as="points">
              <mxPoint x="1699.94" y="110" />
              <mxPoint x="1699.94" y="205" />
            </Array>
          </mxGeometry>
        </mxCell>
        <mxCell id="zFvjHUXD-oqokfdrNkOI-46" value="" style="ellipse;whiteSpace=wrap;html=1;aspect=fixed;fillColor=#000000;" vertex="1" parent="1">
          <mxGeometry x="1829.94" y="100" width="20" height="20" as="geometry" />
        </mxCell>
        <mxCell id="zFvjHUXD-oqokfdrNkOI-57" value="" style="ellipse;whiteSpace=wrap;html=1;aspect=fixed;" vertex="1" parent="1">
          <mxGeometry x="2030" y="190" width="80" height="80" as="geometry" />
        </mxCell>
        <mxCell id="zFvjHUXD-oqokfdrNkOI-58" value="" style="edgeStyle=orthogonalEdgeStyle;rounded=0;orthogonalLoop=1;jettySize=auto;html=1;" edge="1" source="zFvjHUXD-oqokfdrNkOI-57" target="zFvjHUXD-oqokfdrNkOI-60" parent="1">
          <mxGeometry relative="1" as="geometry" />
        </mxCell>
        <mxCell id="zFvjHUXD-oqokfdrNkOI-59" value="X3" style="edgeLabel;html=1;align=center;verticalAlign=middle;resizable=0;points=[];" vertex="1" connectable="0" parent="zFvjHUXD-oqokfdrNkOI-58">
          <mxGeometry x="-0.1741" relative="1" as="geometry">
            <mxPoint as="offset" />
          </mxGeometry>
        </mxCell>
        <mxCell id="zFvjHUXD-oqokfdrNkOI-66" value="" style="edgeStyle=orthogonalEdgeStyle;rounded=0;orthogonalLoop=1;jettySize=auto;html=1;curved=0;" edge="1" parent="1" source="zFvjHUXD-oqokfdrNkOI-60" target="zFvjHUXD-oqokfdrNkOI-65">
          <mxGeometry relative="1" as="geometry" />
        </mxCell>
        <mxCell id="zFvjHUXD-oqokfdrNkOI-60" value="" style="html=1;points=[[0,0,0,0,5],[0,1,0,0,-5],[1,0,0,0,5],[1,1,0,0,-5]];perimeter=orthogonalPerimeter;outlineConnect=0;targetShapes=umlLifeline;portConstraint=eastwest;newEdgeStyle={&quot;curved&quot;:0,&quot;rounded&quot;:0};fillColor=#000000;" vertex="1" parent="1">
          <mxGeometry x="2180" y="190" width="10" height="80" as="geometry" />
        </mxCell>
        <mxCell id="zFvjHUXD-oqokfdrNkOI-63" value="" style="edgeStyle=orthogonalEdgeStyle;rounded=0;orthogonalLoop=1;jettySize=auto;html=1;" edge="1" parent="1">
          <mxGeometry relative="1" as="geometry">
            <mxPoint x="1960" y="229.76" as="sourcePoint" />
            <mxPoint x="2030" y="229.76" as="targetPoint" />
          </mxGeometry>
        </mxCell>
        <mxCell id="zFvjHUXD-oqokfdrNkOI-68" value="" style="edgeStyle=orthogonalEdgeStyle;rounded=0;orthogonalLoop=1;jettySize=auto;html=1;" edge="1" parent="1" source="zFvjHUXD-oqokfdrNkOI-65" target="zFvjHUXD-oqokfdrNkOI-67">
          <mxGeometry relative="1" as="geometry" />
        </mxCell>
        <mxCell id="zFvjHUXD-oqokfdrNkOI-65" value="" style="ellipse;whiteSpace=wrap;html=1;aspect=fixed;" vertex="1" parent="1">
          <mxGeometry x="2250" y="190" width="80" height="80" as="geometry" />
        </mxCell>
        <mxCell id="zFvjHUXD-oqokfdrNkOI-67" value="" style="html=1;points=[[0,0,0,0,5],[0,1,0,0,-5],[1,0,0,0,5],[1,1,0,0,-5]];perimeter=orthogonalPerimeter;outlineConnect=0;targetShapes=umlLifeline;portConstraint=eastwest;newEdgeStyle={&quot;curved&quot;:0,&quot;rounded&quot;:0};fillColor=#000000;" vertex="1" parent="1">
          <mxGeometry x="2390" y="190" width="10" height="80" as="geometry" />
        </mxCell>
        <mxCell id="zFvjHUXD-oqokfdrNkOI-116" value="&lt;div&gt;Ingresa una&lt;/div&gt;&lt;div&gt;masa para&lt;/div&gt;&lt;div&gt;canelon&lt;br&gt;&lt;/div&gt;" style="text;html=1;align=center;verticalAlign=middle;resizable=0;points=[];autosize=1;strokeColor=none;fillColor=none;" vertex="1" parent="1">
          <mxGeometry x="490" y="260" width="90" height="60" as="geometry" />
        </mxCell>
        <mxCell id="zFvjHUXD-oqokfdrNkOI-117" value="&lt;div&gt;Masa de canelon&lt;/div&gt;&lt;div&gt;en espera&lt;/div&gt;" style="text;html=1;align=center;verticalAlign=middle;resizable=0;points=[];autosize=1;strokeColor=none;fillColor=none;" vertex="1" parent="1">
          <mxGeometry x="600" y="155" width="120" height="40" as="geometry" />
        </mxCell>
        <mxCell id="zFvjHUXD-oqokfdrNkOI-118" value="&lt;div&gt;Masa de canelon&lt;/div&gt;&lt;div&gt;enviada para amasar&lt;br&gt;&lt;/div&gt;" style="text;html=1;align=center;verticalAlign=middle;resizable=0;points=[];autosize=1;strokeColor=none;fillColor=none;" vertex="1" parent="1">
          <mxGeometry x="705" y="150" width="140" height="40" as="geometry" />
        </mxCell>
        <mxCell id="zFvjHUXD-oqokfdrNkOI-119" value="&lt;div&gt;Amasando masa&lt;/div&gt;&lt;div&gt;de canelon&lt;br&gt;&lt;/div&gt;" style="text;html=1;align=center;verticalAlign=middle;resizable=0;points=[];autosize=1;strokeColor=none;fillColor=none;" vertex="1" parent="1">
          <mxGeometry x="840" y="270" width="120" height="40" as="geometry" />
        </mxCell>
        <mxCell id="zFvjHUXD-oqokfdrNkOI-120" value="&lt;div&gt;Masa de canelon&lt;/div&gt;&lt;div&gt;lista&lt;br&gt;&lt;/div&gt;" style="text;html=1;align=center;verticalAlign=middle;resizable=0;points=[];autosize=1;strokeColor=none;fillColor=none;" vertex="1" parent="1">
          <mxGeometry x="955" y="150" width="120" height="40" as="geometry" />
        </mxCell>
        <mxCell id="zFvjHUXD-oqokfdrNkOI-121" value="&lt;div&gt;Masa de canelon lista&lt;br&gt;&lt;/div&gt;&lt;div&gt;en espera&lt;/div&gt;" style="text;html=1;align=center;verticalAlign=middle;resizable=0;points=[];autosize=1;strokeColor=none;fillColor=none;" vertex="1" parent="1">
          <mxGeometry x="1070" y="270" width="140" height="40" as="geometry" />
        </mxCell>
        <mxCell id="zFvjHUXD-oqokfdrNkOI-122" value="Empleado disponible" style="text;html=1;align=center;verticalAlign=middle;resizable=0;points=[];autosize=1;strokeColor=none;fillColor=none;" vertex="1" parent="1">
          <mxGeometry x="830" y="320" width="140" height="30" as="geometry" />
        </mxCell>
        <mxCell id="zFvjHUXD-oqokfdrNkOI-123" value="&lt;div&gt;Inicia corte&lt;/div&gt;&lt;div&gt;de canelon&lt;br&gt;&lt;/div&gt;" style="text;html=1;align=center;verticalAlign=middle;resizable=0;points=[];autosize=1;strokeColor=none;fillColor=none;" vertex="1" parent="1">
          <mxGeometry x="1215" y="270" width="80" height="40" as="geometry" />
        </mxCell>
        <mxCell id="zFvjHUXD-oqokfdrNkOI-124" value="&lt;div&gt;Cortando masa&lt;/div&gt;&lt;div&gt;de canelon&lt;br&gt;&lt;/div&gt;" style="text;html=1;align=center;verticalAlign=middle;resizable=0;points=[];autosize=1;strokeColor=none;fillColor=none;" vertex="1" parent="1">
          <mxGeometry x="1315" y="270" width="110" height="40" as="geometry" />
        </mxCell>
        <mxCell id="zFvjHUXD-oqokfdrNkOI-126" value="&lt;div&gt;Masa de canelon&lt;/div&gt;&lt;div&gt;cortada&lt;br&gt;&lt;/div&gt;" style="text;html=1;align=center;verticalAlign=middle;resizable=0;points=[];autosize=1;strokeColor=none;fillColor=none;" vertex="1" parent="1">
          <mxGeometry x="1425" y="270" width="120" height="40" as="geometry" />
        </mxCell>
        <mxCell id="zFvjHUXD-oqokfdrNkOI-127" value="&lt;div&gt;Cortador de canelones&lt;/div&gt;&lt;div&gt;disponible&lt;br&gt;&lt;/div&gt;" style="text;html=1;align=center;verticalAlign=middle;resizable=0;points=[];autosize=1;strokeColor=none;fillColor=none;" vertex="1" parent="1">
          <mxGeometry x="1295" y="20" width="150" height="40" as="geometry" />
        </mxCell>
        <mxCell id="zFvjHUXD-oqokfdrNkOI-128" value="&lt;div&gt;Masas de canelon&lt;/div&gt;&lt;div&gt;cortadas en espera&lt;br&gt;&lt;/div&gt;" style="text;html=1;align=center;verticalAlign=middle;resizable=0;points=[];autosize=1;strokeColor=none;fillColor=none;" vertex="1" parent="1">
          <mxGeometry x="1545" y="270" width="130" height="40" as="geometry" />
        </mxCell>
        <mxCell id="zFvjHUXD-oqokfdrNkOI-129" value="&lt;div&gt;Inicia relleno&lt;/div&gt;&lt;div&gt;de canelon&lt;br&gt;&lt;/div&gt;" style="text;html=1;align=center;verticalAlign=middle;resizable=0;points=[];autosize=1;strokeColor=none;fillColor=none;" vertex="1" parent="1">
          <mxGeometry x="1680" y="270" width="90" height="40" as="geometry" />
        </mxCell>
        <mxCell id="zFvjHUXD-oqokfdrNkOI-130" value="&lt;div&gt;Rellenando&lt;/div&gt;&lt;div&gt;canelones&lt;br&gt;&lt;/div&gt;" style="text;html=1;align=center;verticalAlign=middle;resizable=0;points=[];autosize=1;strokeColor=none;fillColor=none;" vertex="1" parent="1">
          <mxGeometry x="1795" y="270" width="90" height="40" as="geometry" />
        </mxCell>
        <mxCell id="zFvjHUXD-oqokfdrNkOI-131" value="&lt;div&gt;Canelones rellenos&lt;/div&gt;&lt;div&gt;listos&lt;br&gt;&lt;/div&gt;" style="text;html=1;align=center;verticalAlign=middle;resizable=0;points=[];autosize=1;strokeColor=none;fillColor=none;" vertex="1" parent="1">
          <mxGeometry x="1890" y="270" width="130" height="40" as="geometry" />
        </mxCell>
        <mxCell id="zFvjHUXD-oqokfdrNkOI-132" value="&lt;div&gt;Rellenador de canelones&lt;/div&gt;&lt;div&gt;disponible&lt;br&gt;&lt;/div&gt;" style="text;html=1;align=center;verticalAlign=middle;resizable=0;points=[];autosize=1;strokeColor=none;fillColor=none;" vertex="1" parent="1">
          <mxGeometry x="1760" y="30" width="160" height="40" as="geometry" />
        </mxCell>
        <mxCell id="zFvjHUXD-oqokfdrNkOI-133" value="&lt;div&gt;Canelones&lt;/div&gt;&lt;div&gt;listos para guardar&lt;br&gt;&lt;/div&gt;" style="text;html=1;align=center;verticalAlign=middle;resizable=0;points=[];autosize=1;strokeColor=none;fillColor=none;" vertex="1" parent="1">
          <mxGeometry x="2005" y="150" width="130" height="40" as="geometry" />
        </mxCell>
        <mxCell id="zFvjHUXD-oqokfdrNkOI-134" value="Guardando canelones" style="text;html=1;align=center;verticalAlign=middle;resizable=0;points=[];autosize=1;strokeColor=none;fillColor=none;" vertex="1" parent="1">
          <mxGeometry x="2110" y="275" width="150" height="30" as="geometry" />
        </mxCell>
        <mxCell id="zFvjHUXD-oqokfdrNkOI-135" value="&lt;div&gt;Cajas con canelones&lt;/div&gt;&lt;div&gt;listas&lt;br&gt;&lt;/div&gt;" style="text;html=1;align=center;verticalAlign=middle;resizable=0;points=[];autosize=1;strokeColor=none;fillColor=none;" vertex="1" parent="1">
          <mxGeometry x="2220" y="150" width="140" height="40" as="geometry" />
        </mxCell>
        <mxCell id="zFvjHUXD-oqokfdrNkOI-136" value="&lt;div&gt;Despachando caja&lt;/div&gt;&lt;div&gt;de canelones&lt;br&gt;&lt;/div&gt;" style="text;html=1;align=center;verticalAlign=middle;resizable=0;points=[];autosize=1;strokeColor=none;fillColor=none;" vertex="1" parent="1">
          <mxGeometry x="2330" y="265" width="130" height="40" as="geometry" />
        </mxCell>
        <mxCell id="zFvjHUXD-oqokfdrNkOI-137" value="" style="edgeStyle=orthogonalEdgeStyle;rounded=0;orthogonalLoop=1;jettySize=auto;html=1;curved=0;" edge="1" parent="1" source="zFvjHUXD-oqokfdrNkOI-138" target="zFvjHUXD-oqokfdrNkOI-140">
          <mxGeometry relative="1" as="geometry" />
        </mxCell>
        <mxCell id="zFvjHUXD-oqokfdrNkOI-138" value="" style="html=1;points=[[0,0,0,0,5],[0,1,0,0,-5],[1,0,0,0,5],[1,1,0,0,-5]];perimeter=orthogonalPerimeter;outlineConnect=0;targetShapes=umlLifeline;portConstraint=eastwest;newEdgeStyle={&quot;curved&quot;:0,&quot;rounded&quot;:0};fillColor=#000000;" vertex="1" parent="1">
          <mxGeometry x="530" y="535" width="10" height="80" as="geometry" />
        </mxCell>
        <mxCell id="zFvjHUXD-oqokfdrNkOI-139" value="" style="edgeStyle=orthogonalEdgeStyle;rounded=0;orthogonalLoop=1;jettySize=auto;html=1;" edge="1" parent="1" source="zFvjHUXD-oqokfdrNkOI-140" target="zFvjHUXD-oqokfdrNkOI-142">
          <mxGeometry relative="1" as="geometry" />
        </mxCell>
        <mxCell id="zFvjHUXD-oqokfdrNkOI-140" value="" style="ellipse;whiteSpace=wrap;html=1;aspect=fixed;" vertex="1" parent="1">
          <mxGeometry x="620" y="535" width="80" height="80" as="geometry" />
        </mxCell>
        <mxCell id="zFvjHUXD-oqokfdrNkOI-141" value="" style="edgeStyle=orthogonalEdgeStyle;rounded=0;orthogonalLoop=1;jettySize=auto;html=1;curved=0;" edge="1" parent="1" source="zFvjHUXD-oqokfdrNkOI-142" target="zFvjHUXD-oqokfdrNkOI-144">
          <mxGeometry relative="1" as="geometry" />
        </mxCell>
        <mxCell id="zFvjHUXD-oqokfdrNkOI-142" value="" style="html=1;points=[[0,0,0,0,5],[0,1,0,0,-5],[1,0,0,0,5],[1,1,0,0,-5]];perimeter=orthogonalPerimeter;outlineConnect=0;targetShapes=umlLifeline;portConstraint=eastwest;newEdgeStyle={&quot;curved&quot;:0,&quot;rounded&quot;:0};fillColor=#000000;" vertex="1" parent="1">
          <mxGeometry x="770" y="535" width="10" height="80" as="geometry" />
        </mxCell>
        <mxCell id="zFvjHUXD-oqokfdrNkOI-143" value="" style="edgeStyle=orthogonalEdgeStyle;rounded=0;orthogonalLoop=1;jettySize=auto;html=1;" edge="1" parent="1" source="zFvjHUXD-oqokfdrNkOI-144" target="zFvjHUXD-oqokfdrNkOI-146">
          <mxGeometry relative="1" as="geometry" />
        </mxCell>
        <mxCell id="zFvjHUXD-oqokfdrNkOI-144" value="" style="ellipse;whiteSpace=wrap;html=1;aspect=fixed;" vertex="1" parent="1">
          <mxGeometry x="860" y="535" width="80" height="80" as="geometry" />
        </mxCell>
        <mxCell id="zFvjHUXD-oqokfdrNkOI-145" value="" style="edgeStyle=orthogonalEdgeStyle;rounded=0;orthogonalLoop=1;jettySize=auto;html=1;curved=0;" edge="1" parent="1" source="zFvjHUXD-oqokfdrNkOI-146" target="zFvjHUXD-oqokfdrNkOI-147">
          <mxGeometry relative="1" as="geometry" />
        </mxCell>
        <mxCell id="zFvjHUXD-oqokfdrNkOI-146" value="" style="html=1;points=[[0,0,0,0,5],[0,1,0,0,-5],[1,0,0,0,5],[1,1,0,0,-5]];perimeter=orthogonalPerimeter;outlineConnect=0;targetShapes=umlLifeline;portConstraint=eastwest;newEdgeStyle={&quot;curved&quot;:0,&quot;rounded&quot;:0};fillColor=#000000;" vertex="1" parent="1">
          <mxGeometry x="1010" y="535" width="10" height="80" as="geometry" />
        </mxCell>
        <mxCell id="zFvjHUXD-oqokfdrNkOI-147" value="" style="ellipse;whiteSpace=wrap;html=1;aspect=fixed;" vertex="1" parent="1">
          <mxGeometry x="1100" y="535" width="80" height="80" as="geometry" />
        </mxCell>
        <mxCell id="zFvjHUXD-oqokfdrNkOI-148" value="" style="edgeStyle=orthogonalEdgeStyle;rounded=0;orthogonalLoop=1;jettySize=auto;html=1;" edge="1" parent="1" source="zFvjHUXD-oqokfdrNkOI-147" target="zFvjHUXD-oqokfdrNkOI-150">
          <mxGeometry relative="1" as="geometry" />
        </mxCell>
        <mxCell id="zFvjHUXD-oqokfdrNkOI-149" value="" style="edgeStyle=orthogonalEdgeStyle;rounded=0;orthogonalLoop=1;jettySize=auto;html=1;curved=0;" edge="1" parent="1" source="zFvjHUXD-oqokfdrNkOI-150" target="zFvjHUXD-oqokfdrNkOI-151">
          <mxGeometry relative="1" as="geometry" />
        </mxCell>
        <mxCell id="zFvjHUXD-oqokfdrNkOI-150" value="" style="html=1;points=[[0,0,0,0,5],[0,1,0,0,-5],[1,0,0,0,5],[1,1,0,0,-5]];perimeter=orthogonalPerimeter;outlineConnect=0;targetShapes=umlLifeline;portConstraint=eastwest;newEdgeStyle={&quot;curved&quot;:0,&quot;rounded&quot;:0};fillColor=#000000;" vertex="1" parent="1">
          <mxGeometry x="1250" y="535" width="10" height="80" as="geometry" />
        </mxCell>
        <mxCell id="zFvjHUXD-oqokfdrNkOI-151" value="" style="ellipse;whiteSpace=wrap;html=1;aspect=fixed;" vertex="1" parent="1">
          <mxGeometry x="1330" y="535" width="80" height="80" as="geometry" />
        </mxCell>
        <mxCell id="zFvjHUXD-oqokfdrNkOI-152" value="" style="edgeStyle=orthogonalEdgeStyle;rounded=0;orthogonalLoop=1;jettySize=auto;html=1;" edge="1" parent="1" source="zFvjHUXD-oqokfdrNkOI-151" target="zFvjHUXD-oqokfdrNkOI-156">
          <mxGeometry relative="1" as="geometry" />
        </mxCell>
        <mxCell id="zFvjHUXD-oqokfdrNkOI-153" style="edgeStyle=orthogonalEdgeStyle;rounded=0;orthogonalLoop=1;jettySize=auto;html=1;curved=0;entryX=1;entryY=0.5;entryDx=0;entryDy=0;" edge="1" parent="1" source="zFvjHUXD-oqokfdrNkOI-156" target="zFvjHUXD-oqokfdrNkOI-157">
          <mxGeometry relative="1" as="geometry">
            <Array as="points">
              <mxPoint x="1520" y="545" />
              <mxPoint x="1520" y="445" />
            </Array>
          </mxGeometry>
        </mxCell>
        <mxCell id="zFvjHUXD-oqokfdrNkOI-154" value="" style="edgeStyle=orthogonalEdgeStyle;rounded=0;orthogonalLoop=1;jettySize=auto;html=1;curved=0;" edge="1" parent="1" source="zFvjHUXD-oqokfdrNkOI-156" target="zFvjHUXD-oqokfdrNkOI-160">
          <mxGeometry relative="1" as="geometry" />
        </mxCell>
        <mxCell id="zFvjHUXD-oqokfdrNkOI-155" value="X6" style="edgeLabel;html=1;align=center;verticalAlign=middle;resizable=0;points=[];" vertex="1" connectable="0" parent="zFvjHUXD-oqokfdrNkOI-154">
          <mxGeometry x="0.175" relative="1" as="geometry">
            <mxPoint as="offset" />
          </mxGeometry>
        </mxCell>
        <mxCell id="zFvjHUXD-oqokfdrNkOI-156" value="" style="html=1;points=[[0,0,0,0,5],[0,1,0,0,-5],[1,0,0,0,5],[1,1,0,0,-5]];perimeter=orthogonalPerimeter;outlineConnect=0;targetShapes=umlLifeline;portConstraint=eastwest;newEdgeStyle={&quot;curved&quot;:0,&quot;rounded&quot;:0};fillColor=#000000;" vertex="1" parent="1">
          <mxGeometry x="1480" y="535" width="10" height="80" as="geometry" />
        </mxCell>
        <mxCell id="zFvjHUXD-oqokfdrNkOI-157" value="" style="ellipse;whiteSpace=wrap;html=1;aspect=fixed;" vertex="1" parent="1">
          <mxGeometry x="1330" y="405" width="80" height="80" as="geometry" />
        </mxCell>
        <mxCell id="zFvjHUXD-oqokfdrNkOI-158" value="" style="ellipse;whiteSpace=wrap;html=1;aspect=fixed;fillColor=#000000;" vertex="1" parent="1">
          <mxGeometry x="1360" y="435" width="20" height="20" as="geometry" />
        </mxCell>
        <mxCell id="zFvjHUXD-oqokfdrNkOI-159" style="edgeStyle=orthogonalEdgeStyle;rounded=0;orthogonalLoop=1;jettySize=auto;html=1;entryX=0;entryY=0;entryDx=0;entryDy=5;entryPerimeter=0;" edge="1" parent="1" source="zFvjHUXD-oqokfdrNkOI-157" target="zFvjHUXD-oqokfdrNkOI-150">
          <mxGeometry relative="1" as="geometry">
            <Array as="points">
              <mxPoint x="1230" y="445" />
              <mxPoint x="1230" y="540" />
            </Array>
          </mxGeometry>
        </mxCell>
        <mxCell id="zFvjHUXD-oqokfdrNkOI-160" value="" style="ellipse;whiteSpace=wrap;html=1;aspect=fixed;" vertex="1" parent="1">
          <mxGeometry x="1570" y="535" width="80" height="80" as="geometry" />
        </mxCell>
        <mxCell id="zFvjHUXD-oqokfdrNkOI-161" value="" style="edgeStyle=orthogonalEdgeStyle;rounded=0;orthogonalLoop=1;jettySize=auto;html=1;" edge="1" parent="1" source="zFvjHUXD-oqokfdrNkOI-160" target="zFvjHUXD-oqokfdrNkOI-165">
          <mxGeometry relative="1" as="geometry" />
        </mxCell>
        <mxCell id="zFvjHUXD-oqokfdrNkOI-162" value="X3" style="edgeLabel;html=1;align=center;verticalAlign=middle;resizable=0;points=[];" vertex="1" connectable="0" parent="zFvjHUXD-oqokfdrNkOI-161">
          <mxGeometry x="-0.1333" y="-1" relative="1" as="geometry">
            <mxPoint y="-1" as="offset" />
          </mxGeometry>
        </mxCell>
        <mxCell id="zFvjHUXD-oqokfdrNkOI-163" value="" style="edgeStyle=orthogonalEdgeStyle;rounded=0;orthogonalLoop=1;jettySize=auto;html=1;curved=0;" edge="1" parent="1" source="zFvjHUXD-oqokfdrNkOI-165" target="zFvjHUXD-oqokfdrNkOI-166">
          <mxGeometry relative="1" as="geometry" />
        </mxCell>
        <mxCell id="zFvjHUXD-oqokfdrNkOI-164" value="X3" style="edgeLabel;html=1;align=center;verticalAlign=middle;resizable=0;points=[];" vertex="1" connectable="0" parent="zFvjHUXD-oqokfdrNkOI-163">
          <mxGeometry x="-0.1469" y="1" relative="1" as="geometry">
            <mxPoint y="1" as="offset" />
          </mxGeometry>
        </mxCell>
        <mxCell id="zFvjHUXD-oqokfdrNkOI-165" value="" style="html=1;points=[[0,0,0,0,5],[0,1,0,0,-5],[1,0,0,0,5],[1,1,0,0,-5]];perimeter=orthogonalPerimeter;outlineConnect=0;targetShapes=umlLifeline;portConstraint=eastwest;newEdgeStyle={&quot;curved&quot;:0,&quot;rounded&quot;:0};fillColor=#000000;" vertex="1" parent="1">
          <mxGeometry x="1720" y="535" width="10" height="80" as="geometry" />
        </mxCell>
        <mxCell id="zFvjHUXD-oqokfdrNkOI-166" value="" style="ellipse;whiteSpace=wrap;html=1;aspect=fixed;" vertex="1" parent="1">
          <mxGeometry x="1800" y="535" width="80" height="80" as="geometry" />
        </mxCell>
        <mxCell id="zFvjHUXD-oqokfdrNkOI-167" value="" style="edgeStyle=orthogonalEdgeStyle;rounded=0;orthogonalLoop=1;jettySize=auto;html=1;" edge="1" parent="1" source="zFvjHUXD-oqokfdrNkOI-166" target="zFvjHUXD-oqokfdrNkOI-169">
          <mxGeometry relative="1" as="geometry" />
        </mxCell>
        <mxCell id="zFvjHUXD-oqokfdrNkOI-168" value="X3" style="edgeLabel;html=1;align=center;verticalAlign=middle;resizable=0;points=[];" vertex="1" connectable="0" parent="zFvjHUXD-oqokfdrNkOI-167">
          <mxGeometry x="-0.1741" relative="1" as="geometry">
            <mxPoint as="offset" />
          </mxGeometry>
        </mxCell>
        <mxCell id="zFvjHUXD-oqokfdrNkOI-169" value="" style="html=1;points=[[0,0,0,0,5],[0,1,0,0,-5],[1,0,0,0,5],[1,1,0,0,-5]];perimeter=orthogonalPerimeter;outlineConnect=0;targetShapes=umlLifeline;portConstraint=eastwest;newEdgeStyle={&quot;curved&quot;:0,&quot;rounded&quot;:0};fillColor=#000000;" vertex="1" parent="1">
          <mxGeometry x="1950" y="535" width="10" height="80" as="geometry" />
        </mxCell>
        <mxCell id="zFvjHUXD-oqokfdrNkOI-170" style="edgeStyle=orthogonalEdgeStyle;rounded=0;orthogonalLoop=1;jettySize=auto;html=1;curved=0;entryX=1;entryY=0.5;entryDx=0;entryDy=0;" edge="1" parent="1" target="zFvjHUXD-oqokfdrNkOI-171">
          <mxGeometry relative="1" as="geometry">
            <mxPoint x="1959.94" y="555" as="sourcePoint" />
            <Array as="points">
              <mxPoint x="1989.94" y="555" />
              <mxPoint x="1989.94" y="455" />
            </Array>
          </mxGeometry>
        </mxCell>
        <mxCell id="zFvjHUXD-oqokfdrNkOI-171" value="" style="ellipse;whiteSpace=wrap;html=1;aspect=fixed;" vertex="1" parent="1">
          <mxGeometry x="1799.94" y="415" width="80" height="80" as="geometry" />
        </mxCell>
        <mxCell id="zFvjHUXD-oqokfdrNkOI-172" style="edgeStyle=orthogonalEdgeStyle;rounded=0;orthogonalLoop=1;jettySize=auto;html=1;entryX=0;entryY=0;entryDx=0;entryDy=5;entryPerimeter=0;" edge="1" parent="1" source="zFvjHUXD-oqokfdrNkOI-171">
          <mxGeometry relative="1" as="geometry">
            <mxPoint x="1719.94" y="550" as="targetPoint" />
            <Array as="points">
              <mxPoint x="1699.94" y="455" />
              <mxPoint x="1699.94" y="550" />
            </Array>
          </mxGeometry>
        </mxCell>
        <mxCell id="zFvjHUXD-oqokfdrNkOI-173" value="" style="ellipse;whiteSpace=wrap;html=1;aspect=fixed;fillColor=#000000;" vertex="1" parent="1">
          <mxGeometry x="1829.94" y="445" width="20" height="20" as="geometry" />
        </mxCell>
        <mxCell id="zFvjHUXD-oqokfdrNkOI-174" value="" style="ellipse;whiteSpace=wrap;html=1;aspect=fixed;" vertex="1" parent="1">
          <mxGeometry x="2030" y="535" width="80" height="80" as="geometry" />
        </mxCell>
        <mxCell id="zFvjHUXD-oqokfdrNkOI-175" value="" style="edgeStyle=orthogonalEdgeStyle;rounded=0;orthogonalLoop=1;jettySize=auto;html=1;" edge="1" parent="1" source="zFvjHUXD-oqokfdrNkOI-174" target="zFvjHUXD-oqokfdrNkOI-178">
          <mxGeometry relative="1" as="geometry" />
        </mxCell>
        <mxCell id="zFvjHUXD-oqokfdrNkOI-176" value="X3" style="edgeLabel;html=1;align=center;verticalAlign=middle;resizable=0;points=[];" vertex="1" connectable="0" parent="zFvjHUXD-oqokfdrNkOI-175">
          <mxGeometry x="-0.1741" relative="1" as="geometry">
            <mxPoint as="offset" />
          </mxGeometry>
        </mxCell>
        <mxCell id="zFvjHUXD-oqokfdrNkOI-177" value="" style="edgeStyle=orthogonalEdgeStyle;rounded=0;orthogonalLoop=1;jettySize=auto;html=1;curved=0;" edge="1" parent="1" source="zFvjHUXD-oqokfdrNkOI-178" target="zFvjHUXD-oqokfdrNkOI-182">
          <mxGeometry relative="1" as="geometry" />
        </mxCell>
        <mxCell id="zFvjHUXD-oqokfdrNkOI-178" value="" style="html=1;points=[[0,0,0,0,5],[0,1,0,0,-5],[1,0,0,0,5],[1,1,0,0,-5]];perimeter=orthogonalPerimeter;outlineConnect=0;targetShapes=umlLifeline;portConstraint=eastwest;newEdgeStyle={&quot;curved&quot;:0,&quot;rounded&quot;:0};fillColor=#000000;" vertex="1" parent="1">
          <mxGeometry x="2180" y="535" width="10" height="80" as="geometry" />
        </mxCell>
        <mxCell id="zFvjHUXD-oqokfdrNkOI-179" value="" style="edgeStyle=orthogonalEdgeStyle;rounded=0;orthogonalLoop=1;jettySize=auto;html=1;" edge="1" parent="1">
          <mxGeometry relative="1" as="geometry">
            <mxPoint x="1960" y="574.76" as="sourcePoint" />
            <mxPoint x="2030" y="574.76" as="targetPoint" />
          </mxGeometry>
        </mxCell>
        <mxCell id="zFvjHUXD-oqokfdrNkOI-180" value="X3" style="edgeLabel;html=1;align=center;verticalAlign=middle;resizable=0;points=[];" vertex="1" connectable="0" parent="zFvjHUXD-oqokfdrNkOI-179">
          <mxGeometry x="-0.1333" y="-1" relative="1" as="geometry">
            <mxPoint y="-1" as="offset" />
          </mxGeometry>
        </mxCell>
        <mxCell id="zFvjHUXD-oqokfdrNkOI-181" value="" style="edgeStyle=orthogonalEdgeStyle;rounded=0;orthogonalLoop=1;jettySize=auto;html=1;" edge="1" parent="1" source="zFvjHUXD-oqokfdrNkOI-182" target="zFvjHUXD-oqokfdrNkOI-183">
          <mxGeometry relative="1" as="geometry" />
        </mxCell>
        <mxCell id="zFvjHUXD-oqokfdrNkOI-182" value="" style="ellipse;whiteSpace=wrap;html=1;aspect=fixed;" vertex="1" parent="1">
          <mxGeometry x="2250" y="535" width="80" height="80" as="geometry" />
        </mxCell>
        <mxCell id="zFvjHUXD-oqokfdrNkOI-183" value="" style="html=1;points=[[0,0,0,0,5],[0,1,0,0,-5],[1,0,0,0,5],[1,1,0,0,-5]];perimeter=orthogonalPerimeter;outlineConnect=0;targetShapes=umlLifeline;portConstraint=eastwest;newEdgeStyle={&quot;curved&quot;:0,&quot;rounded&quot;:0};fillColor=#000000;" vertex="1" parent="1">
          <mxGeometry x="2390" y="535" width="10" height="80" as="geometry" />
        </mxCell>
        <mxCell id="zFvjHUXD-oqokfdrNkOI-184" value="&lt;div&gt;Masa de sorrentino&lt;/div&gt;&lt;div&gt;en espera&lt;/div&gt;" style="text;html=1;align=center;verticalAlign=middle;resizable=0;points=[];autosize=1;strokeColor=none;fillColor=none;" vertex="1" parent="1">
          <mxGeometry x="595" y="500" width="130" height="40" as="geometry" />
        </mxCell>
        <mxCell id="zFvjHUXD-oqokfdrNkOI-185" value="&lt;div&gt;Masa de sorrentino&lt;/div&gt;&lt;div&gt;enviada para amasar&lt;br&gt;&lt;/div&gt;" style="text;html=1;align=center;verticalAlign=middle;resizable=0;points=[];autosize=1;strokeColor=none;fillColor=none;" vertex="1" parent="1">
          <mxGeometry x="720" y="495" width="140" height="40" as="geometry" />
        </mxCell>
        <mxCell id="zFvjHUXD-oqokfdrNkOI-186" value="&lt;div&gt;Amasando masa&lt;/div&gt;&lt;div&gt;de sorrentino&lt;br&gt;&lt;/div&gt;" style="text;html=1;align=center;verticalAlign=middle;resizable=0;points=[];autosize=1;strokeColor=none;fillColor=none;" vertex="1" parent="1">
          <mxGeometry x="840" y="615" width="120" height="40" as="geometry" />
        </mxCell>
        <mxCell id="zFvjHUXD-oqokfdrNkOI-187" value="&lt;div&gt;Masa de sorrentino&lt;/div&gt;&lt;div&gt;lista&lt;br&gt;&lt;/div&gt;" style="text;html=1;align=center;verticalAlign=middle;resizable=0;points=[];autosize=1;strokeColor=none;fillColor=none;" vertex="1" parent="1">
          <mxGeometry x="950" y="495" width="130" height="40" as="geometry" />
        </mxCell>
        <mxCell id="zFvjHUXD-oqokfdrNkOI-188" value="&lt;div&gt;Masa de sorrentino lista&lt;br&gt;&lt;/div&gt;&lt;div&gt;en espera&lt;/div&gt;" style="text;html=1;align=center;verticalAlign=middle;resizable=0;points=[];autosize=1;strokeColor=none;fillColor=none;" vertex="1" parent="1">
          <mxGeometry x="1060" y="615" width="160" height="40" as="geometry" />
        </mxCell>
        <mxCell id="zFvjHUXD-oqokfdrNkOI-189" value="&lt;div&gt;Inicia corte&lt;/div&gt;&lt;div&gt;de sorrentino&lt;br&gt;&lt;/div&gt;" style="text;html=1;align=center;verticalAlign=middle;resizable=0;points=[];autosize=1;strokeColor=none;fillColor=none;" vertex="1" parent="1">
          <mxGeometry x="1205" y="615" width="100" height="40" as="geometry" />
        </mxCell>
        <mxCell id="zFvjHUXD-oqokfdrNkOI-190" value="&lt;div&gt;Cortando masa&lt;/div&gt;&lt;div&gt;de sorrentino&lt;br&gt;&lt;/div&gt;" style="text;html=1;align=center;verticalAlign=middle;resizable=0;points=[];autosize=1;strokeColor=none;fillColor=none;" vertex="1" parent="1">
          <mxGeometry x="1315" y="615" width="110" height="40" as="geometry" />
        </mxCell>
        <mxCell id="zFvjHUXD-oqokfdrNkOI-191" value="&lt;div&gt;Masa de sorrentino&lt;/div&gt;&lt;div&gt;cortada&lt;br&gt;&lt;/div&gt;" style="text;html=1;align=center;verticalAlign=middle;resizable=0;points=[];autosize=1;strokeColor=none;fillColor=none;" vertex="1" parent="1">
          <mxGeometry x="1420" y="615" width="130" height="40" as="geometry" />
        </mxCell>
        <mxCell id="zFvjHUXD-oqokfdrNkOI-192" value="&lt;div&gt;Cortador de sorrentino&lt;/div&gt;&lt;div&gt;disponible&lt;br&gt;&lt;/div&gt;" style="text;html=1;align=center;verticalAlign=middle;resizable=0;points=[];autosize=1;strokeColor=none;fillColor=none;" vertex="1" parent="1">
          <mxGeometry x="1295" y="365" width="150" height="40" as="geometry" />
        </mxCell>
        <mxCell id="zFvjHUXD-oqokfdrNkOI-193" value="&lt;div&gt;Masas de sorrentino&lt;/div&gt;&lt;div&gt;cortadas en espera&lt;br&gt;&lt;/div&gt;" style="text;html=1;align=center;verticalAlign=middle;resizable=0;points=[];autosize=1;strokeColor=none;fillColor=none;" vertex="1" parent="1">
          <mxGeometry x="1540" y="615" width="140" height="40" as="geometry" />
        </mxCell>
        <mxCell id="zFvjHUXD-oqokfdrNkOI-194" value="&lt;div&gt;Inicia relleno&lt;/div&gt;&lt;div&gt;de sorrentino&lt;/div&gt;" style="text;html=1;align=center;verticalAlign=middle;resizable=0;points=[];autosize=1;strokeColor=none;fillColor=none;" vertex="1" parent="1">
          <mxGeometry x="1675" y="615" width="100" height="40" as="geometry" />
        </mxCell>
        <mxCell id="zFvjHUXD-oqokfdrNkOI-195" value="&lt;div&gt;Rellenando&lt;/div&gt;&lt;div&gt;sorrentino&lt;/div&gt;" style="text;html=1;align=center;verticalAlign=middle;resizable=0;points=[];autosize=1;strokeColor=none;fillColor=none;" vertex="1" parent="1">
          <mxGeometry x="1795" y="615" width="90" height="40" as="geometry" />
        </mxCell>
        <mxCell id="zFvjHUXD-oqokfdrNkOI-196" value="&lt;div&gt;sorrentinos rellenos&lt;/div&gt;&lt;div&gt;listos&lt;br&gt;&lt;/div&gt;" style="text;html=1;align=center;verticalAlign=middle;resizable=0;points=[];autosize=1;strokeColor=none;fillColor=none;" vertex="1" parent="1">
          <mxGeometry x="1890" y="615" width="130" height="40" as="geometry" />
        </mxCell>
        <mxCell id="zFvjHUXD-oqokfdrNkOI-197" value="&lt;div&gt;Rellenador de sorrentinos&lt;/div&gt;&lt;div&gt;disponible&lt;br&gt;&lt;/div&gt;" style="text;html=1;align=center;verticalAlign=middle;resizable=0;points=[];autosize=1;strokeColor=none;fillColor=none;" vertex="1" parent="1">
          <mxGeometry x="1755" y="375" width="170" height="40" as="geometry" />
        </mxCell>
        <mxCell id="zFvjHUXD-oqokfdrNkOI-198" value="&lt;div&gt;sorrentinos&lt;/div&gt;&lt;div&gt;listos para guardar&lt;br&gt;&lt;/div&gt;" style="text;html=1;align=center;verticalAlign=middle;resizable=0;points=[];autosize=1;strokeColor=none;fillColor=none;" vertex="1" parent="1">
          <mxGeometry x="2005" y="495" width="130" height="40" as="geometry" />
        </mxCell>
        <mxCell id="zFvjHUXD-oqokfdrNkOI-199" value="Guardando sorrentinos" style="text;html=1;align=center;verticalAlign=middle;resizable=0;points=[];autosize=1;strokeColor=none;fillColor=none;" vertex="1" parent="1">
          <mxGeometry x="2110" y="620" width="150" height="30" as="geometry" />
        </mxCell>
        <mxCell id="zFvjHUXD-oqokfdrNkOI-200" value="&lt;div&gt;Cajas con sorrentinos&lt;/div&gt;&lt;div&gt;listas&lt;br&gt;&lt;/div&gt;" style="text;html=1;align=center;verticalAlign=middle;resizable=0;points=[];autosize=1;strokeColor=none;fillColor=none;" vertex="1" parent="1">
          <mxGeometry x="2215" y="495" width="150" height="40" as="geometry" />
        </mxCell>
        <mxCell id="zFvjHUXD-oqokfdrNkOI-201" value="&lt;div&gt;Despachando caja&lt;/div&gt;&lt;div&gt;de sorrentinos&lt;/div&gt;" style="text;html=1;align=center;verticalAlign=middle;resizable=0;points=[];autosize=1;strokeColor=none;fillColor=none;" vertex="1" parent="1">
          <mxGeometry x="2330" y="610" width="130" height="40" as="geometry" />
        </mxCell>
        <mxCell id="zFvjHUXD-oqokfdrNkOI-202" value="&lt;div&gt;Ingresa una&lt;/div&gt;&lt;div&gt;masa para&lt;/div&gt;&lt;div&gt;sorrentino&lt;br&gt;&lt;/div&gt;" style="text;html=1;align=center;verticalAlign=middle;resizable=0;points=[];autosize=1;strokeColor=none;fillColor=none;" vertex="1" parent="1">
          <mxGeometry x="490" y="610" width="90" height="60" as="geometry" />
        </mxCell>
        <mxCell id="zFvjHUXD-oqokfdrNkOI-204" style="edgeStyle=orthogonalEdgeStyle;rounded=0;orthogonalLoop=1;jettySize=auto;html=1;curved=0;entryX=0.994;entryY=0.684;entryDx=0;entryDy=0;entryPerimeter=0;" edge="1" parent="1" source="zFvjHUXD-oqokfdrNkOI-146" target="zFvjHUXD-oqokfdrNkOI-10">
          <mxGeometry relative="1" as="geometry">
            <Array as="points">
              <mxPoint x="1080" y="540" />
              <mxPoint x="1080" y="400" />
            </Array>
          </mxGeometry>
        </mxCell>
        <mxCell id="zFvjHUXD-oqokfdrNkOI-205" style="edgeStyle=orthogonalEdgeStyle;rounded=0;orthogonalLoop=1;jettySize=auto;html=1;entryX=0;entryY=0;entryDx=0;entryDy=5;entryPerimeter=0;" edge="1" parent="1" source="zFvjHUXD-oqokfdrNkOI-10" target="zFvjHUXD-oqokfdrNkOI-142">
          <mxGeometry relative="1" as="geometry">
            <Array as="points">
              <mxPoint x="720" y="400" />
              <mxPoint x="720" y="540" />
            </Array>
          </mxGeometry>
        </mxCell>
      </root>
    </mxGraphModel>
  </diagram>
</mxfile>
